<?xml version="1.0" encoding="utf-8"?>
<!-- Generator: Adobe Illustrator 16.0.1, SVG Export Plug-In . SVG Version: 6.00 Build 0)  -->
<!DOCTYPE svg PUBLIC "-//W3C//DTD SVG 1.1//EN" "http://www.w3.org/Graphics/SVG/1.1/DTD/svg11.dtd">
<svg version="1.1" id="wall" xmlns="http://www.w3.org/2000/svg" xmlns:xlink="http://www.w3.org/1999/xlink"
	 width="3500px" height="700px" xml:space="preserve">
<path fill="none" d="z"/>
<g id="Layer_x25_201">
  <path d="M 0 350 q 150 -300 300 0 q 150 300 300 0 q 150 -300 300 0 q 150 300 300 0 q 150 -300 300 0 q 150 300 300 0 q 150 -300 300 0 q 150 300 300 0 q 150 -300 300 0 q 150 300 300 0 q 150 -300 300 0 q 150 300 300 0 q 150 -300 300 0 q 150 300 300 0 q 150 -300 300 0 q 150 300 300 0 q 150 -300 300 0 q 150 300 300 0 q 150 -300 300 0 q 150 300 300 0 q 150 -300 300 0 q 150 300 300 0 q 150 -300 300 0 q 150 300 300 0 q 150 -300 300 0 q 150 300 300 0 q 150 -300 300 0 q 150 300 300 0 q 150 -300 300 0 q 150 300 300 0 q 150 -300 300 0 q 150 300 300 0 q 150 -300 300 0 q 150 300 300 0 q 150 -300 300 0 q 150 300 300 0 q 150 -300 300 0 q 150 300 300 0 q 150 -300 300 0 q 150 300 300 0 q 150 -300 300 0 q 150 300 300 0 q 150 -300 300 0 q 150 300 300 0 q 150 -300 300 0 q 150 300 300 0 q 150 -300 300 0 q 150 300 300 0 q 150 -300 300 0 q 150 300 300 0 q 150 -300 300 0 q 150 300 300 0 q 150 -300 300 0 q 150 300 300 0 q 150 -300 300 0 q 150 300 300 0 q 150 -300 300 0 q 150 300 300 0 q 150 -300 300 0 q 150 300 300 0 q 150 -300 300 0 q 150 300 300 0 q 150 -300 300 0 q 150 300 300 0 q 150 -300 300 0 q 150 300 300 0 q 150 -300 300 0 q 150 300 300 0 q 150 -300 300 0 q 150 300 300 0 q 150 -300 300 0 q 150 300 300 0 q 150 -300 300 0 q 150 300 300 0 q 150 -300 300 0 q 150 300 300 0 q 150 -300 300 0 q 150 300 300 0 q 150 -300 300 0 q 150 300 300 0 q 150 -300 300 0 q 150 300 300 0 q 150 -300 300 0 q 150 300 300 0 q 150 -300 300 0 q 150 300 300 0 q 150 -300 300 0 q 150 300 300 0 q 150 -300 300 0 q 150 300 300 0 q 150 -300 300 0 q 150 300 300 0 q 150 -300 300 0 q 150 300 300 0 q 150 -300 300 0 q 150 300 300 0 q 150 -300 300 0 q 150 300 300 0 q 150 -300 300 0 q 150 300 300 0 q 150 -300 300 0 q 150 300 300 0 q 150 -300 300 0 q 150 300 300 0 q 150 -300 300 0 q 150 300 300 0 q 150 -300 300 0 q 150 300 300 0 q 150 -300 300 0 q 150 300 300 0 q 150 -300 300 0 q 150 300 300 0 q 150 -300 300 0 q 150 300 300 0 q 150 -300 300 0 q 150 300 300 0 q 150 -300 300 0 q 150 300 300 0 q 150 -300 300 0 q 150 300 300 0 q 150 -300 300 0 q 150 300 300 0 q 150 -300 300 0 q 150 300 300 0 q 150 -300 300 0 q 150 300 300 0 q 150 -300 300 0 q 150 300 300 0 q 150 -300 300 0 q 150 300 300 0 q 150 -300 300 0 q 150 300 300 0 q 150 -300 300 0 q 150 300 300 0 q 150 -300 300 0 q 150 300 300 0 q 150 -300 300 0 q 150 300 300 0 q 150 -300 300 0 q 150 300 300 0 q 150 -300 300 0 q 150 300 300 0 q 150 -300 300 0 q 150 300 300 0 q 150 -300 300 0 q 150 300 300 0 q 150 -300 300 0 q 150 300 300 0 q 150 -300 300 0 q 150 300 300 0 q 150 -300 300 0 q 150 300 300 0 q 150 -300 300 0 q 150 300 300 0 q 150 -300 300 0 q 150 300 300 0 q 150 -300 300 0 q 150 300 300 0 q 150 -300 300 0 q 150 300 300 0 q 150 -300 300 0 q 150 300 300 0 q 150 -300 300 0 q 150 300 300 0 q 150 -300 300 0 q 150 300 300 0 q 150 -300 300 0 q 150 300 300 0" stroke="rgba(0,0,0,0.3)" stroke-width="2" fill="none" />
    
  <rect x="10" y="350" width="40" height="50"
  style="fill:rgb(0,0,0);stroke:pink;stroke-width:5;fill-opacity:0.2;stroke-opacity:0" />
  <rect x="60" y="300" width="40" height="100"
  style="fill:rgb(0,0,0);stroke:pink;stroke-width:5;fill-opacity:0.2;stroke-opacity:0" />
  <rect x="110" y="150" width="40" height="250"
  style="fill:rgb(0,0,0);stroke:pink;stroke-width:5;fill-opacity:0.2;stroke-opacity:0" />
  <rect x="160" y="50" width="40" height="350"
  style="fill:rgb(0,0,0);stroke:pink;stroke-width:5;fill-opacity:0.2;stroke-opacity:0" />
  <rect x="210" y="200" width="40" height="200"
  style="fill:rgb(0,0,0);stroke:pink;stroke-width:5;fill-opacity:0.2;stroke-opacity:0" />
  <rect x="260" y="320" width="40" height="80"
  style="fill:rgb(0,0,0);stroke:pink;stroke-width:5;fill-opacity:0.2;stroke-opacity:0" />
  <rect x="310" y="250" width="40" height="150"
  style="fill:rgb(0,0,0);stroke:pink;stroke-width:5;fill-opacity:0.2;stroke-opacity:0" />
  
  
  <rect x="360" y="350" width="40" height="50"
  style="fill:rgb(0,0,0);stroke:pink;stroke-width:5;fill-opacity:0.2;stroke-opacity:0" />
  <rect x="410" y="300" width="40" height="100"
  style="fill:rgb(0,0,0);stroke:pink;stroke-width:5;fill-opacity:0.2;stroke-opacity:0" />
  <rect x="460" y="150" width="40" height="250"
  style="fill:rgb(0,0,0);stroke:pink;stroke-width:5;fill-opacity:0.2;stroke-opacity:0" />
  <rect x="510" y="50" width="40" height="350"
  style="fill:rgb(0,0,0);stroke:pink;stroke-width:5;fill-opacity:0.2;stroke-opacity:0" />
  <rect x="560" y="200" width="40" height="200"
  style="fill:rgb(0,0,0);stroke:pink;stroke-width:5;fill-opacity:0.2;stroke-opacity:0" />
  <rect x="610" y="320" width="40" height="80"
  style="fill:rgb(0,0,0);stroke:pink;stroke-width:5;fill-opacity:0.2;stroke-opacity:0" />
  <rect x="660" y="250" width="40" height="150"
  style="fill:rgb(0,0,0);stroke:pink;stroke-width:5;fill-opacity:0.2;stroke-opacity:0" />
  
  
  <rect x="710" y="350" width="40" height="50"
  style="fill:rgb(0,0,0);stroke:pink;stroke-width:5;fill-opacity:0.2;stroke-opacity:0" />
  <rect x="760" y="300" width="40" height="100"
  style="fill:rgb(0,0,0);stroke:pink;stroke-width:5;fill-opacity:0.2;stroke-opacity:0" />
  <rect x="810" y="150" width="40" height="250"
  style="fill:rgb(0,0,0);stroke:pink;stroke-width:5;fill-opacity:0.2;stroke-opacity:0" />
  <rect x="860" y="50" width="40" height="350"
  style="fill:rgb(0,0,0);stroke:pink;stroke-width:5;fill-opacity:0.2;stroke-opacity:0" />
  <rect x="910" y="200" width="40" height="200"
  style="fill:rgb(0,0,0);stroke:pink;stroke-width:5;fill-opacity:0.2;stroke-opacity:0" />
  <rect x="960" y="320" width="40" height="80"
  style="fill:rgb(0,0,0);stroke:pink;stroke-width:5;fill-opacity:0.2;stroke-opacity:0" />
  
  <rect x="1010" y="350" width="40" height="50"
  style="fill:rgb(0,0,0);stroke:pink;stroke-width:5;fill-opacity:0.2;stroke-opacity:0" />
  <rect x="1060" y="300" width="40" height="100"
  style="fill:rgb(0,0,0);stroke:pink;stroke-width:5;fill-opacity:0.2;stroke-opacity:0" />
  <rect x="1110" y="150" width="40" height="250"
  style="fill:rgb(0,0,0);stroke:pink;stroke-width:5;fill-opacity:0.2;stroke-opacity:0" />
  <rect x="1160" y="50" width="40" height="350"
  style="fill:rgb(0,0,0);stroke:pink;stroke-width:5;fill-opacity:0.2;stroke-opacity:0" />
  <rect x="1210" y="200" width="40" height="200"
  style="fill:rgb(0,0,0);stroke:pink;stroke-width:5;fill-opacity:0.2;stroke-opacity:0" />
  <rect x="1260" y="320" width="40" height="80"
  style="fill:rgb(0,0,0);stroke:pink;stroke-width:5;fill-opacity:0.2;stroke-opacity:0" />
  
  <rect x="1310" y="350" width="40" height="50"
  style="fill:rgb(0,0,0);stroke:pink;stroke-width:5;fill-opacity:0.2;stroke-opacity:0" />
  <rect x="1360" y="300" width="40" height="100"
  style="fill:rgb(0,0,0);stroke:pink;stroke-width:5;fill-opacity:0.2;stroke-opacity:0" />
  <rect x="1410" y="150" width="40" height="250"
  style="fill:rgb(0,0,0);stroke:pink;stroke-width:5;fill-opacity:0.2;stroke-opacity:0" />
  <rect x="1460" y="50" width="40" height="350"
  style="fill:rgb(0,0,0);stroke:pink;stroke-width:5;fill-opacity:0.2;stroke-opacity:0" />
  <rect x="1510" y="200" width="40" height="200"
  style="fill:rgb(0,0,0);stroke:pink;stroke-width:5;fill-opacity:0.2;stroke-opacity:0" />
  <rect x="1560" y="320" width="40" height="80"
  style="fill:rgb(0,0,0);stroke:pink;stroke-width:5;fill-opacity:0.2;stroke-opacity:0" />
  
      <rect x="1610" y="350" width="40" height="50"
  style="fill:rgb(0,0,0);stroke:pink;stroke-width:5;fill-opacity:0.2;stroke-opacity:0" />
  <rect x="1660" y="300" width="40" height="100"
  style="fill:rgb(0,0,0);stroke:pink;stroke-width:5;fill-opacity:0.2;stroke-opacity:0" />
  <rect x="1710" y="150" width="40" height="250"
  style="fill:rgb(0,0,0);stroke:pink;stroke-width:5;fill-opacity:0.2;stroke-opacity:0" />
  <rect x="1760" y="50" width="40" height="350"
  style="fill:rgb(0,0,0);stroke:pink;stroke-width:5;fill-opacity:0.2;stroke-opacity:0" />
  <rect x="1810" y="200" width="40" height="200"
  style="fill:rgb(0,0,0);stroke:pink;stroke-width:5;fill-opacity:0.2;stroke-opacity:0" />
  <rect x="1860" y="320" width="40" height="80"
  style="fill:rgb(0,0,0);stroke:pink;stroke-width:5;fill-opacity:0.2;stroke-opacity:0" />
  
  <rect x="1910" y="350" width="40" height="50"
  style="fill:rgb(0,0,0);stroke:pink;stroke-width:5;fill-opacity:0.2;stroke-opacity:0" />
  <rect x="1960" y="300" width="40" height="100"
  style="fill:rgb(0,0,0);stroke:pink;stroke-width:5;fill-opacity:0.2;stroke-opacity:0" />
  <rect x="2010" y="150" width="40" height="250"
  style="fill:rgb(0,0,0);stroke:pink;stroke-width:5;fill-opacity:0.2;stroke-opacity:0" />
  <rect x="2060" y="50" width="40" height="350"
  style="fill:rgb(0,0,0);stroke:pink;stroke-width:5;fill-opacity:0.2;stroke-opacity:0" />
  <rect x="2110" y="200" width="40" height="200"
  style="fill:rgb(0,0,0);stroke:pink;stroke-width:5;fill-opacity:0.2;stroke-opacity:0" />
  <rect x="2160" y="320" width="40" height="80"
  style="fill:rgb(0,0,0);stroke:pink;stroke-width:5;fill-opacity:0.2;stroke-opacity:0" />
  
  <rect x="2210" y="350" width="40" height="50"
  style="fill:rgb(0,0,0);stroke:pink;stroke-width:5;fill-opacity:0.2;stroke-opacity:0" />
  <rect x="2260" y="300" width="40" height="100"
  style="fill:rgb(0,0,0);stroke:pink;stroke-width:5;fill-opacity:0.2;stroke-opacity:0" />
  <rect x="2310" y="150" width="40" height="250"
  style="fill:rgb(0,0,0);stroke:pink;stroke-width:5;fill-opacity:0.2;stroke-opacity:0" />
  <rect x="2360" y="50" width="40" height="350"
  style="fill:rgb(0,0,0);stroke:pink;stroke-width:5;fill-opacity:0.2;stroke-opacity:0" />
  <rect x="2410" y="200" width="40" height="200"
  style="fill:rgb(0,0,0);stroke:pink;stroke-width:5;fill-opacity:0.2;stroke-opacity:0" />
  <rect x="2460" y="320" width="40" height="80"
  style="fill:rgb(0,0,0);stroke:pink;stroke-width:5;fill-opacity:0.2;stroke-opacity:0" />
  
  <rect x="2510" y="350" width="40" height="50"
  style="fill:rgb(0,0,0);stroke:pink;stroke-width:5;fill-opacity:0.2;stroke-opacity:0" />
  <rect x="2560" y="300" width="40" height="100"
  style="fill:rgb(0,0,0);stroke:pink;stroke-width:5;fill-opacity:0.2;stroke-opacity:0" />
  <rect x="2610" y="150" width="40" height="250"
  style="fill:rgb(0,0,0);stroke:pink;stroke-width:5;fill-opacity:0.2;stroke-opacity:0" />
  <rect x="2660" y="50" width="40" height="350"
  style="fill:rgb(0,0,0);stroke:pink;stroke-width:5;fill-opacity:0.2;stroke-opacity:0" />
  <rect x="2710" y="200" width="40" height="200"
  style="fill:rgb(0,0,0);stroke:pink;stroke-width:5;fill-opacity:0.2;stroke-opacity:0" />
  <rect x="2760" y="320" width="40" height="80"
  style="fill:rgb(0,0,0);stroke:pink;stroke-width:5;fill-opacity:0.2;stroke-opacity:0" />
  
  <rect x="2810" y="350" width="40" height="50"
  style="fill:rgb(0,0,0);stroke:pink;stroke-width:5;fill-opacity:0.2;stroke-opacity:0" />
  <rect x="2860" y="300" width="40" height="100"
  style="fill:rgb(0,0,0);stroke:pink;stroke-width:5;fill-opacity:0.2;stroke-opacity:0" />
  <rect x="2910" y="150" width="40" height="250"
  style="fill:rgb(0,0,0);stroke:pink;stroke-width:5;fill-opacity:0.2;stroke-opacity:0" />
  <rect x="2960" y="50" width="40" height="350"
  style="fill:rgb(0,0,0);stroke:pink;stroke-width:5;fill-opacity:0.2;stroke-opacity:0" />
  <rect x="3010" y="200" width="40" height="200"
  style="fill:rgb(0,0,0);stroke:pink;stroke-width:5;fill-opacity:0.2;stroke-opacity:0" />
  <rect x="3060" y="320" width="40" height="80"
  style="fill:rgb(0,0,0);stroke:pink;stroke-width:5;fill-opacity:0.2;stroke-opacity:0" />
  
  <rect x="3110" y="350" width="40" height="50"
  style="fill:rgb(0,0,0);stroke:pink;stroke-width:5;fill-opacity:0.2;stroke-opacity:0" />
  <rect x="3160" y="300" width="40" height="100"
  style="fill:rgb(0,0,0);stroke:pink;stroke-width:5;fill-opacity:0.2;stroke-opacity:0" />
  <rect x="3210" y="150" width="40" height="250"
  style="fill:rgb(0,0,0);stroke:pink;stroke-width:5;fill-opacity:0.2;stroke-opacity:0" />
  <rect x="3260" y="50" width="40" height="350"
  style="fill:rgb(0,0,0);stroke:pink;stroke-width:5;fill-opacity:0.2;stroke-opacity:0" />
  <rect x="3310" y="200" width="40" height="200"
  style="fill:rgb(0,0,0);stroke:pink;stroke-width:5;fill-opacity:0.2;stroke-opacity:0" />
  <rect x="3360" y="320" width="40" height="80"
  style="fill:rgb(0,0,0);stroke:pink;stroke-width:5;fill-opacity:0.2;stroke-opacity:0" />
  
  <rect x="3410" y="350" width="40" height="50"
  style="fill:rgb(0,0,0);stroke:pink;stroke-width:5;fill-opacity:0.2;stroke-opacity:0" />
  <rect x="3460" y="300" width="40" height="100"
  style="fill:rgb(0,0,0);stroke:pink;stroke-width:5;fill-opacity:0.2;stroke-opacity:0" />
  <rect x="3510" y="150" width="40" height="250"
  style="fill:rgb(0,0,0);stroke:pink;stroke-width:5;fill-opacity:0.2;stroke-opacity:0" />
</g>
<path fill="none" d="z"/>
</svg>
